<mxfile host="app.diagrams.net" modified="2021-06-27T21:19:29.128Z" agent="5.0 (X11; Linux x86_64) AppleWebKit/537.36 (KHTML, like Gecko) Chrome/90.0.4430.93 Safari/537.36" etag="q667FP8xBTgnMzWgVs6H" version="14.8.1" type="github">
  <diagram id="c7RSiAgEq7K3T1tGgwCF" name="Page-1">
    <mxGraphModel dx="534" dy="1702" grid="1" gridSize="10" guides="1" tooltips="1" connect="1" arrows="1" fold="1" page="1" pageScale="1" pageWidth="1169" pageHeight="827" math="0" shadow="0">
      <root>
        <mxCell id="0" />
        <mxCell id="1" parent="0" />
        <mxCell id="H4xNiST5xQG2xDy_QpK2-1" value="&lt;font style=&quot;font-size: 40px&quot;&gt;NUSP: 8535596&lt;br&gt;Nome: Raul dos Reis Soares&lt;/font&gt;" style="text;html=1;align=center;verticalAlign=middle;resizable=0;points=[];autosize=1;strokeColor=none;" parent="1" vertex="1">
          <mxGeometry y="40" width="530" height="50" as="geometry" />
        </mxCell>
        <mxCell id="64vifGtqwenx35H4uy4H-2" value="Usuário" style="whiteSpace=wrap;html=1;align=center;" parent="1" vertex="1">
          <mxGeometry x="360" y="394" width="100" height="40" as="geometry" />
        </mxCell>
        <mxCell id="64vifGtqwenx35H4uy4H-3" value="Senha" style="ellipse;whiteSpace=wrap;html=1;align=center;" parent="1" vertex="1">
          <mxGeometry x="380" y="240" width="100" height="40" as="geometry" />
        </mxCell>
        <mxCell id="64vifGtqwenx35H4uy4H-6" value="" style="endArrow=none;html=1;rounded=0;entryX=0;entryY=1;entryDx=0;entryDy=0;exitX=0.75;exitY=0;exitDx=0;exitDy=0;" parent="1" source="64vifGtqwenx35H4uy4H-2" target="64vifGtqwenx35H4uy4H-3" edge="1">
          <mxGeometry relative="1" as="geometry">
            <mxPoint x="670" y="453.40999999999997" as="sourcePoint" />
            <mxPoint x="830" y="453.40999999999997" as="targetPoint" />
          </mxGeometry>
        </mxCell>
        <mxCell id="64vifGtqwenx35H4uy4H-7" value="Nascimento" style="ellipse;whiteSpace=wrap;html=1;align=center;" parent="1" vertex="1">
          <mxGeometry x="500" y="240" width="100" height="40" as="geometry" />
        </mxCell>
        <mxCell id="64vifGtqwenx35H4uy4H-8" value="Login" style="ellipse;whiteSpace=wrap;html=1;align=center;" parent="1" vertex="1">
          <mxGeometry x="270" y="240" width="100" height="40" as="geometry" />
        </mxCell>
        <mxCell id="64vifGtqwenx35H4uy4H-9" value="CPF" style="ellipse;whiteSpace=wrap;html=1;align=center;fontStyle=4;" parent="1" vertex="1">
          <mxGeometry x="100" y="280" width="100" height="40" as="geometry" />
        </mxCell>
        <mxCell id="64vifGtqwenx35H4uy4H-10" value="Área de Pesquisa" style="ellipse;shape=doubleEllipse;margin=3;whiteSpace=wrap;html=1;align=center;" parent="1" vertex="1">
          <mxGeometry x="100" y="340" width="100" height="40" as="geometry" />
        </mxCell>
        <mxCell id="64vifGtqwenx35H4uy4H-11" value="Endereço" style="ellipse;whiteSpace=wrap;html=1;align=center;" parent="1" vertex="1">
          <mxGeometry x="100" y="394" width="100" height="40" as="geometry" />
        </mxCell>
        <mxCell id="64vifGtqwenx35H4uy4H-12" value="Instituição" style="ellipse;whiteSpace=wrap;html=1;align=center;" parent="1" vertex="1">
          <mxGeometry x="100" y="450" width="100" height="40" as="geometry" />
        </mxCell>
        <mxCell id="64vifGtqwenx35H4uy4H-13" value="Nome" style="ellipse;whiteSpace=wrap;html=1;align=center;" parent="1" vertex="1">
          <mxGeometry x="160" y="240" width="100" height="40" as="geometry" />
        </mxCell>
        <mxCell id="64vifGtqwenx35H4uy4H-14" value="" style="endArrow=none;html=1;rounded=0;entryX=0;entryY=1;entryDx=0;entryDy=0;exitX=1;exitY=0;exitDx=0;exitDy=0;" parent="1" source="64vifGtqwenx35H4uy4H-2" target="64vifGtqwenx35H4uy4H-7" edge="1">
          <mxGeometry relative="1" as="geometry">
            <mxPoint x="580" y="453.93" as="sourcePoint" />
            <mxPoint x="619.6446609406728" y="374.07213562373084" as="targetPoint" />
          </mxGeometry>
        </mxCell>
        <mxCell id="64vifGtqwenx35H4uy4H-15" value="" style="endArrow=none;html=1;rounded=0;entryX=0.5;entryY=1;entryDx=0;entryDy=0;exitX=0.5;exitY=0;exitDx=0;exitDy=0;" parent="1" source="64vifGtqwenx35H4uy4H-2" target="64vifGtqwenx35H4uy4H-8" edge="1">
          <mxGeometry relative="1" as="geometry">
            <mxPoint x="470" y="404" as="sourcePoint" />
            <mxPoint x="609.1446609406728" y="324.14213562373084" as="targetPoint" />
          </mxGeometry>
        </mxCell>
        <mxCell id="64vifGtqwenx35H4uy4H-16" value="" style="endArrow=none;html=1;rounded=0;entryX=1;entryY=1;entryDx=0;entryDy=0;exitX=0.25;exitY=0;exitDx=0;exitDy=0;" parent="1" source="64vifGtqwenx35H4uy4H-2" target="64vifGtqwenx35H4uy4H-13" edge="1">
          <mxGeometry relative="1" as="geometry">
            <mxPoint x="420" y="404" as="sourcePoint" />
            <mxPoint x="400" y="330" as="targetPoint" />
          </mxGeometry>
        </mxCell>
        <mxCell id="64vifGtqwenx35H4uy4H-17" value="" style="endArrow=none;html=1;rounded=0;entryX=1;entryY=0.5;entryDx=0;entryDy=0;exitX=0;exitY=0;exitDx=0;exitDy=0;" parent="1" source="64vifGtqwenx35H4uy4H-2" target="64vifGtqwenx35H4uy4H-9" edge="1">
          <mxGeometry relative="1" as="geometry">
            <mxPoint x="330" y="419.86" as="sourcePoint" />
            <mxPoint x="260.35533905932743" y="340.00213562373085" as="targetPoint" />
          </mxGeometry>
        </mxCell>
        <mxCell id="64vifGtqwenx35H4uy4H-18" value="" style="endArrow=none;html=1;rounded=0;entryX=1;entryY=0.5;entryDx=0;entryDy=0;exitX=0;exitY=0.25;exitDx=0;exitDy=0;" parent="1" source="64vifGtqwenx35H4uy4H-2" target="64vifGtqwenx35H4uy4H-10" edge="1">
          <mxGeometry relative="1" as="geometry">
            <mxPoint x="350" y="422" as="sourcePoint" />
            <mxPoint x="210" y="358" as="targetPoint" />
          </mxGeometry>
        </mxCell>
        <mxCell id="64vifGtqwenx35H4uy4H-19" value="" style="endArrow=none;html=1;rounded=0;entryX=1;entryY=0.5;entryDx=0;entryDy=0;exitX=0;exitY=0.5;exitDx=0;exitDy=0;" parent="1" source="64vifGtqwenx35H4uy4H-2" target="64vifGtqwenx35H4uy4H-11" edge="1">
          <mxGeometry relative="1" as="geometry">
            <mxPoint x="340" y="421" as="sourcePoint" />
            <mxPoint x="200" y="407" as="targetPoint" />
          </mxGeometry>
        </mxCell>
        <mxCell id="64vifGtqwenx35H4uy4H-20" value="" style="endArrow=none;html=1;rounded=0;entryX=1;entryY=0.5;entryDx=0;entryDy=0;exitX=0;exitY=0.75;exitDx=0;exitDy=0;" parent="1" source="64vifGtqwenx35H4uy4H-2" target="64vifGtqwenx35H4uy4H-12" edge="1">
          <mxGeometry relative="1" as="geometry">
            <mxPoint x="370" y="424" as="sourcePoint" />
            <mxPoint x="230" y="464" as="targetPoint" />
          </mxGeometry>
        </mxCell>
        <mxCell id="64vifGtqwenx35H4uy4H-21" value="Possui" style="shape=rhombus;perimeter=rhombusPerimeter;whiteSpace=wrap;html=1;align=center;" parent="1" vertex="1">
          <mxGeometry x="720" y="384" width="120" height="60" as="geometry" />
        </mxCell>
        <mxCell id="64vifGtqwenx35H4uy4H-33" value="" style="endArrow=none;html=1;rounded=0;entryX=0;entryY=0.5;entryDx=0;entryDy=0;exitX=1;exitY=0.5;exitDx=0;exitDy=0;" parent="1" source="64vifGtqwenx35H4uy4H-2" target="64vifGtqwenx35H4uy4H-21" edge="1">
          <mxGeometry relative="1" as="geometry">
            <mxPoint x="505" y="410" as="sourcePoint" />
            <mxPoint x="665" y="410" as="targetPoint" />
          </mxGeometry>
        </mxCell>
        <mxCell id="64vifGtqwenx35H4uy4H-34" value="N" style="resizable=0;html=1;align=right;verticalAlign=bottom;" parent="64vifGtqwenx35H4uy4H-33" connectable="0" vertex="1">
          <mxGeometry x="1" relative="1" as="geometry">
            <mxPoint x="-20" as="offset" />
          </mxGeometry>
        </mxCell>
        <mxCell id="64vifGtqwenx35H4uy4H-36" value="Perfil" style="whiteSpace=wrap;html=1;align=center;" parent="1" vertex="1">
          <mxGeometry x="1100" y="394" width="100" height="40" as="geometry" />
        </mxCell>
        <mxCell id="64vifGtqwenx35H4uy4H-37" value="" style="endArrow=none;html=1;rounded=0;entryX=0;entryY=0.5;entryDx=0;entryDy=0;exitX=1;exitY=0.5;exitDx=0;exitDy=0;" parent="1" source="64vifGtqwenx35H4uy4H-21" target="64vifGtqwenx35H4uy4H-36" edge="1">
          <mxGeometry relative="1" as="geometry">
            <mxPoint x="850" y="474" as="sourcePoint" />
            <mxPoint x="1110" y="474" as="targetPoint" />
          </mxGeometry>
        </mxCell>
        <mxCell id="64vifGtqwenx35H4uy4H-38" value="M" style="resizable=0;html=1;align=right;verticalAlign=bottom;" parent="64vifGtqwenx35H4uy4H-37" connectable="0" vertex="1">
          <mxGeometry x="1" relative="1" as="geometry">
            <mxPoint x="-140" as="offset" />
          </mxGeometry>
        </mxCell>
        <mxCell id="64vifGtqwenx35H4uy4H-39" value="Código" style="ellipse;whiteSpace=wrap;html=1;align=center;fontStyle=4;" parent="1" vertex="1">
          <mxGeometry x="1025" y="250" width="100" height="40" as="geometry" />
        </mxCell>
        <mxCell id="64vifGtqwenx35H4uy4H-40" value="" style="endArrow=none;html=1;rounded=0;entryX=0.5;entryY=1;entryDx=0;entryDy=0;exitX=0.5;exitY=0;exitDx=0;exitDy=0;" parent="1" source="64vifGtqwenx35H4uy4H-36" target="64vifGtqwenx35H4uy4H-39" edge="1">
          <mxGeometry relative="1" as="geometry">
            <mxPoint x="1070" y="380" as="sourcePoint" />
            <mxPoint x="1230" y="380" as="targetPoint" />
          </mxGeometry>
        </mxCell>
        <mxCell id="64vifGtqwenx35H4uy4H-41" value="Acessa" style="shape=rhombus;perimeter=rhombusPerimeter;whiteSpace=wrap;html=1;align=center;" parent="1" vertex="1">
          <mxGeometry x="1450" y="384" width="120" height="60" as="geometry" />
        </mxCell>
        <mxCell id="64vifGtqwenx35H4uy4H-42" value="" style="endArrow=none;html=1;rounded=0;entryX=0;entryY=0.5;entryDx=0;entryDy=0;exitX=1;exitY=0.5;exitDx=0;exitDy=0;" parent="1" source="64vifGtqwenx35H4uy4H-36" target="64vifGtqwenx35H4uy4H-41" edge="1">
          <mxGeometry relative="1" as="geometry">
            <mxPoint x="1260" y="490" as="sourcePoint" />
            <mxPoint x="1520" y="490" as="targetPoint" />
          </mxGeometry>
        </mxCell>
        <mxCell id="64vifGtqwenx35H4uy4H-43" value="N" style="resizable=0;html=1;align=right;verticalAlign=bottom;" parent="64vifGtqwenx35H4uy4H-42" connectable="0" vertex="1">
          <mxGeometry x="1" relative="1" as="geometry">
            <mxPoint x="-20" as="offset" />
          </mxGeometry>
        </mxCell>
        <mxCell id="64vifGtqwenx35H4uy4H-44" value="" style="endArrow=none;html=1;rounded=0;exitX=1;exitY=0.5;exitDx=0;exitDy=0;" parent="1" source="64vifGtqwenx35H4uy4H-41" target="64vifGtqwenx35H4uy4H-46" edge="1">
          <mxGeometry relative="1" as="geometry">
            <mxPoint x="1610" y="434" as="sourcePoint" />
            <mxPoint x="1640" y="520" as="targetPoint" />
          </mxGeometry>
        </mxCell>
        <mxCell id="64vifGtqwenx35H4uy4H-45" value="M" style="resizable=0;html=1;align=right;verticalAlign=bottom;" parent="64vifGtqwenx35H4uy4H-44" connectable="0" vertex="1">
          <mxGeometry x="1" relative="1" as="geometry">
            <mxPoint x="-140" as="offset" />
          </mxGeometry>
        </mxCell>
        <mxCell id="64vifGtqwenx35H4uy4H-46" value="Serviço" style="whiteSpace=wrap;html=1;align=center;" parent="1" vertex="1">
          <mxGeometry x="1809.9999999999995" y="394" width="100" height="40" as="geometry" />
        </mxCell>
        <mxCell id="64vifGtqwenx35H4uy4H-47" value="Código" style="ellipse;whiteSpace=wrap;html=1;align=center;fontStyle=4;" parent="1" vertex="1">
          <mxGeometry x="1740" y="280" width="100" height="40" as="geometry" />
        </mxCell>
        <mxCell id="64vifGtqwenx35H4uy4H-51" value="Descrição" style="ellipse;whiteSpace=wrap;html=1;align=center;" parent="1" vertex="1">
          <mxGeometry x="1870" y="280" width="100" height="40" as="geometry" />
        </mxCell>
        <mxCell id="64vifGtqwenx35H4uy4H-52" value="Tipo" style="ellipse;whiteSpace=wrap;html=1;align=center;" parent="1" vertex="1">
          <mxGeometry x="1990" y="280" width="100" height="40" as="geometry" />
        </mxCell>
        <mxCell id="64vifGtqwenx35H4uy4H-53" value="" style="endArrow=none;html=1;rounded=0;exitX=0.5;exitY=1;exitDx=0;exitDy=0;entryX=0.25;entryY=0;entryDx=0;entryDy=0;" parent="1" source="64vifGtqwenx35H4uy4H-47" target="64vifGtqwenx35H4uy4H-46" edge="1">
          <mxGeometry relative="1" as="geometry">
            <mxPoint x="1730" y="290" as="sourcePoint" />
            <mxPoint x="1890" y="290" as="targetPoint" />
          </mxGeometry>
        </mxCell>
        <mxCell id="64vifGtqwenx35H4uy4H-54" value="" style="endArrow=none;html=1;rounded=0;exitX=0.5;exitY=1;exitDx=0;exitDy=0;entryX=0.5;entryY=0;entryDx=0;entryDy=0;" parent="1" source="64vifGtqwenx35H4uy4H-51" target="64vifGtqwenx35H4uy4H-46" edge="1">
          <mxGeometry relative="1" as="geometry">
            <mxPoint x="1910" y="340" as="sourcePoint" />
            <mxPoint x="2014.9999999999995" y="414" as="targetPoint" />
          </mxGeometry>
        </mxCell>
        <mxCell id="64vifGtqwenx35H4uy4H-55" value="" style="endArrow=none;html=1;rounded=0;exitX=0;exitY=1;exitDx=0;exitDy=0;entryX=0.75;entryY=0;entryDx=0;entryDy=0;" parent="1" source="64vifGtqwenx35H4uy4H-52" target="64vifGtqwenx35H4uy4H-46" edge="1">
          <mxGeometry relative="1" as="geometry">
            <mxPoint x="1980" y="340" as="sourcePoint" />
            <mxPoint x="1979.9999999999995" y="414" as="targetPoint" />
          </mxGeometry>
        </mxCell>
        <mxCell id="64vifGtqwenx35H4uy4H-56" value="Executou" style="shape=rhombus;perimeter=rhombusPerimeter;whiteSpace=wrap;html=1;align=center;" parent="1" vertex="1">
          <mxGeometry x="1100" y="-70" width="120" height="60" as="geometry" />
        </mxCell>
        <mxCell id="64vifGtqwenx35H4uy4H-58" value="" style="endArrow=none;html=1;rounded=0;entryX=0;entryY=0.5;entryDx=0;entryDy=0;exitX=1;exitY=0.25;exitDx=0;exitDy=0;" parent="1" source="64vifGtqwenx35H4uy4H-2" target="64vifGtqwenx35H4uy4H-56" edge="1">
          <mxGeometry relative="1" as="geometry">
            <mxPoint x="700.0000000000005" y="649.4099999999997" as="sourcePoint" />
            <mxPoint x="959.9999999999995" y="649.4099999999997" as="targetPoint" />
          </mxGeometry>
        </mxCell>
        <mxCell id="64vifGtqwenx35H4uy4H-59" value="N" style="resizable=0;html=1;align=right;verticalAlign=bottom;" parent="64vifGtqwenx35H4uy4H-58" connectable="0" vertex="1">
          <mxGeometry x="1" relative="1" as="geometry">
            <mxPoint x="-40" y="20" as="offset" />
          </mxGeometry>
        </mxCell>
        <mxCell id="64vifGtqwenx35H4uy4H-60" value="" style="endArrow=none;html=1;rounded=0;entryX=0;entryY=0.25;entryDx=0;entryDy=0;exitX=1;exitY=0.5;exitDx=0;exitDy=0;" parent="1" source="64vifGtqwenx35H4uy4H-56" target="64vifGtqwenx35H4uy4H-46" edge="1">
          <mxGeometry relative="1" as="geometry">
            <mxPoint x="1330.0000000000005" y="659.4099999999999" as="sourcePoint" />
            <mxPoint x="1589.9999999999995" y="659.4099999999999" as="targetPoint" />
          </mxGeometry>
        </mxCell>
        <mxCell id="64vifGtqwenx35H4uy4H-61" value="M" style="resizable=0;html=1;align=right;verticalAlign=bottom;" parent="64vifGtqwenx35H4uy4H-60" connectable="0" vertex="1">
          <mxGeometry x="1" relative="1" as="geometry">
            <mxPoint x="-520" y="-414" as="offset" />
          </mxGeometry>
        </mxCell>
        <mxCell id="64vifGtqwenx35H4uy4H-64" value="Horário" style="ellipse;whiteSpace=wrap;html=1;align=center;" parent="1" vertex="1">
          <mxGeometry x="1110" y="50" width="100" height="40" as="geometry" />
        </mxCell>
        <mxCell id="64vifGtqwenx35H4uy4H-65" value="" style="endArrow=none;html=1;rounded=0;exitX=0.5;exitY=1;exitDx=0;exitDy=0;entryX=0.5;entryY=0;entryDx=0;entryDy=0;" parent="1" source="64vifGtqwenx35H4uy4H-56" target="64vifGtqwenx35H4uy4H-64" edge="1">
          <mxGeometry relative="1" as="geometry">
            <mxPoint x="1260" y="887.1" as="sourcePoint" />
            <mxPoint x="1420" y="887.1" as="targetPoint" />
          </mxGeometry>
        </mxCell>
        <mxCell id="64vifGtqwenx35H4uy4H-66" value="Paciente" style="whiteSpace=wrap;html=1;align=center;" parent="1" vertex="1">
          <mxGeometry x="765" y="907" width="100" height="40" as="geometry" />
        </mxCell>
        <mxCell id="64vifGtqwenx35H4uy4H-67" value="CPF" style="ellipse;whiteSpace=wrap;html=1;align=center;fontStyle=4;" parent="1" vertex="1">
          <mxGeometry x="865" y="827" width="100" height="40" as="geometry" />
        </mxCell>
        <mxCell id="64vifGtqwenx35H4uy4H-68" value="Nome" style="ellipse;whiteSpace=wrap;html=1;align=center;" parent="1" vertex="1">
          <mxGeometry x="715" y="827" width="100" height="40" as="geometry" />
        </mxCell>
        <mxCell id="64vifGtqwenx35H4uy4H-69" value="Nascimento" style="ellipse;whiteSpace=wrap;html=1;align=center;" parent="1" vertex="1">
          <mxGeometry x="575" y="827" width="100" height="40" as="geometry" />
        </mxCell>
        <mxCell id="64vifGtqwenx35H4uy4H-70" value="Endereço" style="ellipse;whiteSpace=wrap;html=1;align=center;" parent="1" vertex="1">
          <mxGeometry x="565" y="907" width="100" height="40" as="geometry" />
        </mxCell>
        <mxCell id="64vifGtqwenx35H4uy4H-71" value="" style="endArrow=none;html=1;rounded=0;entryX=0.5;entryY=1;entryDx=0;entryDy=0;exitX=0.75;exitY=0;exitDx=0;exitDy=0;" parent="1" source="64vifGtqwenx35H4uy4H-66" target="64vifGtqwenx35H4uy4H-67" edge="1">
          <mxGeometry relative="1" as="geometry">
            <mxPoint x="955" y="947" as="sourcePoint" />
            <mxPoint x="1115" y="947" as="targetPoint" />
          </mxGeometry>
        </mxCell>
        <mxCell id="64vifGtqwenx35H4uy4H-72" value="" style="endArrow=none;html=1;rounded=0;entryX=0.5;entryY=1;entryDx=0;entryDy=0;exitX=0.5;exitY=0;exitDx=0;exitDy=0;" parent="1" source="64vifGtqwenx35H4uy4H-66" target="64vifGtqwenx35H4uy4H-68" edge="1">
          <mxGeometry relative="1" as="geometry">
            <mxPoint x="850" y="917" as="sourcePoint" />
            <mxPoint x="925" y="877" as="targetPoint" />
          </mxGeometry>
        </mxCell>
        <mxCell id="64vifGtqwenx35H4uy4H-73" value="" style="endArrow=none;html=1;rounded=0;entryX=1;entryY=0.5;entryDx=0;entryDy=0;exitX=0;exitY=0;exitDx=0;exitDy=0;" parent="1" source="64vifGtqwenx35H4uy4H-66" target="64vifGtqwenx35H4uy4H-69" edge="1">
          <mxGeometry relative="1" as="geometry">
            <mxPoint x="735" y="907" as="sourcePoint" />
            <mxPoint x="685" y="867" as="targetPoint" />
          </mxGeometry>
        </mxCell>
        <mxCell id="64vifGtqwenx35H4uy4H-74" value="" style="endArrow=none;html=1;rounded=0;entryX=1;entryY=0.5;entryDx=0;entryDy=0;exitX=0;exitY=0.5;exitDx=0;exitDy=0;" parent="1" source="64vifGtqwenx35H4uy4H-66" target="64vifGtqwenx35H4uy4H-70" edge="1">
          <mxGeometry relative="1" as="geometry">
            <mxPoint x="745" y="957" as="sourcePoint" />
            <mxPoint x="655" y="897" as="targetPoint" />
          </mxGeometry>
        </mxCell>
        <mxCell id="64vifGtqwenx35H4uy4H-75" value="Faz" style="shape=rhombus;double=1;perimeter=rhombusPerimeter;whiteSpace=wrap;html=1;align=center;" parent="1" vertex="1">
          <mxGeometry x="1145" y="897" width="120" height="60" as="geometry" />
        </mxCell>
        <mxCell id="64vifGtqwenx35H4uy4H-76" value="Exame" style="whiteSpace=wrap;html=1;align=center;" parent="1" vertex="1">
          <mxGeometry x="1495" y="907" width="100" height="40" as="geometry" />
        </mxCell>
        <mxCell id="64vifGtqwenx35H4uy4H-77" value="Vírus" style="ellipse;whiteSpace=wrap;html=1;align=center;fontStyle=4;" parent="1" vertex="1">
          <mxGeometry x="1635" y="937" width="100" height="40" as="geometry" />
        </mxCell>
        <mxCell id="64vifGtqwenx35H4uy4H-78" value="Tipo" style="ellipse;whiteSpace=wrap;html=1;align=center;fontStyle=4;" parent="1" vertex="1">
          <mxGeometry x="1635" y="867" width="100" height="40" as="geometry" />
        </mxCell>
        <mxCell id="64vifGtqwenx35H4uy4H-79" value="" style="endArrow=none;html=1;rounded=0;entryX=0;entryY=0.5;entryDx=0;entryDy=0;exitX=1;exitY=0.25;exitDx=0;exitDy=0;" parent="1" source="64vifGtqwenx35H4uy4H-76" target="64vifGtqwenx35H4uy4H-78" edge="1">
          <mxGeometry relative="1" as="geometry">
            <mxPoint x="1345" y="867" as="sourcePoint" />
            <mxPoint x="1505" y="867" as="targetPoint" />
          </mxGeometry>
        </mxCell>
        <mxCell id="64vifGtqwenx35H4uy4H-80" value="" style="endArrow=none;html=1;rounded=0;entryX=0;entryY=0.5;entryDx=0;entryDy=0;exitX=1;exitY=0.75;exitDx=0;exitDy=0;" parent="1" source="64vifGtqwenx35H4uy4H-76" target="64vifGtqwenx35H4uy4H-77" edge="1">
          <mxGeometry relative="1" as="geometry">
            <mxPoint x="1525" y="1047" as="sourcePoint" />
            <mxPoint x="1565" y="1017" as="targetPoint" />
          </mxGeometry>
        </mxCell>
        <mxCell id="64vifGtqwenx35H4uy4H-83" value="" style="endArrow=none;html=1;rounded=0;entryX=0;entryY=0.5;entryDx=0;entryDy=0;exitX=1;exitY=0.5;exitDx=0;exitDy=0;" parent="1" source="64vifGtqwenx35H4uy4H-66" target="64vifGtqwenx35H4uy4H-75" edge="1">
          <mxGeometry relative="1" as="geometry">
            <mxPoint x="920" y="926.5" as="sourcePoint" />
            <mxPoint x="1080" y="926.5" as="targetPoint" />
          </mxGeometry>
        </mxCell>
        <mxCell id="64vifGtqwenx35H4uy4H-84" value="1" style="resizable=0;html=1;align=right;verticalAlign=bottom;" parent="64vifGtqwenx35H4uy4H-83" connectable="0" vertex="1">
          <mxGeometry x="1" relative="1" as="geometry">
            <mxPoint x="-100" as="offset" />
          </mxGeometry>
        </mxCell>
        <mxCell id="64vifGtqwenx35H4uy4H-85" value="" style="endArrow=none;html=1;rounded=0;entryX=0;entryY=0.5;entryDx=0;entryDy=0;exitX=1;exitY=0.5;exitDx=0;exitDy=0;" parent="1" source="64vifGtqwenx35H4uy4H-75" target="64vifGtqwenx35H4uy4H-76" edge="1">
          <mxGeometry relative="1" as="geometry">
            <mxPoint x="1285" y="926.6599999999999" as="sourcePoint" />
            <mxPoint x="1445" y="926.6599999999999" as="targetPoint" />
          </mxGeometry>
        </mxCell>
        <mxCell id="64vifGtqwenx35H4uy4H-86" value="N" style="resizable=0;html=1;align=right;verticalAlign=bottom;" parent="64vifGtqwenx35H4uy4H-85" connectable="0" vertex="1">
          <mxGeometry x="1" relative="1" as="geometry">
            <mxPoint x="-110" as="offset" />
          </mxGeometry>
        </mxCell>
        <mxCell id="64vifGtqwenx35H4uy4H-87" value="" style="shape=link;html=1;rounded=0;entryX=0.5;entryY=0;entryDx=0;entryDy=0;exitX=0.5;exitY=1;exitDx=0;exitDy=0;" parent="1" source="64vifGtqwenx35H4uy4H-75" target="64vifGtqwenx35H4uy4H-89" edge="1">
          <mxGeometry relative="1" as="geometry">
            <mxPoint x="855" y="1037" as="sourcePoint" />
            <mxPoint x="1015" y="1037" as="targetPoint" />
          </mxGeometry>
        </mxCell>
        <mxCell id="64vifGtqwenx35H4uy4H-88" value="N" style="resizable=0;html=1;align=right;verticalAlign=bottom;" parent="64vifGtqwenx35H4uy4H-87" connectable="0" vertex="1">
          <mxGeometry x="1" relative="1" as="geometry">
            <mxPoint x="30" y="-150" as="offset" />
          </mxGeometry>
        </mxCell>
        <mxCell id="64vifGtqwenx35H4uy4H-89" value="Amostra" style="shape=ext;margin=3;double=1;whiteSpace=wrap;html=1;align=center;" parent="1" vertex="1">
          <mxGeometry x="1155" y="1147" width="100" height="40" as="geometry" />
        </mxCell>
        <mxCell id="64vifGtqwenx35H4uy4H-90" value="&lt;span style=&quot;border-bottom: 1px dotted&quot;&gt;Código&lt;/span&gt;" style="ellipse;whiteSpace=wrap;html=1;align=center;" parent="1" vertex="1">
          <mxGeometry x="1025" y="1228" width="100" height="40" as="geometry" />
        </mxCell>
        <mxCell id="64vifGtqwenx35H4uy4H-91" value="Tipo de material" style="ellipse;whiteSpace=wrap;html=1;align=center;" parent="1" vertex="1">
          <mxGeometry x="1155" y="1228" width="100" height="40" as="geometry" />
        </mxCell>
        <mxCell id="64vifGtqwenx35H4uy4H-92" value="Data de coleta" style="ellipse;whiteSpace=wrap;html=1;align=center;" parent="1" vertex="1">
          <mxGeometry x="1300" y="1228" width="100" height="40" as="geometry" />
        </mxCell>
        <mxCell id="64vifGtqwenx35H4uy4H-93" value="" style="endArrow=none;html=1;rounded=0;entryX=0;entryY=1;entryDx=0;entryDy=0;exitX=0.5;exitY=0;exitDx=0;exitDy=0;" parent="1" source="64vifGtqwenx35H4uy4H-90" target="64vifGtqwenx35H4uy4H-89" edge="1">
          <mxGeometry relative="1" as="geometry">
            <mxPoint x="905" y="1097" as="sourcePoint" />
            <mxPoint x="1065" y="1097" as="targetPoint" />
          </mxGeometry>
        </mxCell>
        <mxCell id="64vifGtqwenx35H4uy4H-94" value="" style="endArrow=none;html=1;rounded=0;entryX=0.5;entryY=1;entryDx=0;entryDy=0;exitX=0.5;exitY=0;exitDx=0;exitDy=0;" parent="1" source="64vifGtqwenx35H4uy4H-91" target="64vifGtqwenx35H4uy4H-89" edge="1">
          <mxGeometry relative="1" as="geometry">
            <mxPoint x="1085" y="1238" as="sourcePoint" />
            <mxPoint x="1165" y="1196.9999999999998" as="targetPoint" />
          </mxGeometry>
        </mxCell>
        <mxCell id="64vifGtqwenx35H4uy4H-95" value="" style="endArrow=none;html=1;rounded=0;entryX=1;entryY=1;entryDx=0;entryDy=0;exitX=0.5;exitY=0;exitDx=0;exitDy=0;" parent="1" source="64vifGtqwenx35H4uy4H-92" target="64vifGtqwenx35H4uy4H-89" edge="1">
          <mxGeometry relative="1" as="geometry">
            <mxPoint x="1345" y="1198" as="sourcePoint" />
            <mxPoint x="1345" y="1156.9999999999998" as="targetPoint" />
          </mxGeometry>
        </mxCell>
        <mxCell id="HXB0dRbDovOkVUzspecU-1" value="" style="endArrow=block;endSize=16;endFill=0;html=1;entryX=0.25;entryY=1;entryDx=0;entryDy=0;rounded=0;exitX=0.5;exitY=0;exitDx=0;exitDy=0;" parent="1" source="HXB0dRbDovOkVUzspecU-2" target="64vifGtqwenx35H4uy4H-2" edge="1">
          <mxGeometry x="0.375" y="-20" width="160" relative="1" as="geometry">
            <mxPoint x="320" y="680" as="sourcePoint" />
            <mxPoint x="410" y="450" as="targetPoint" />
            <Array as="points">
              <mxPoint x="320" y="640" />
              <mxPoint x="385" y="640" />
            </Array>
            <mxPoint as="offset" />
          </mxGeometry>
        </mxCell>
        <mxCell id="HXB0dRbDovOkVUzspecU-2" value="Tutor" style="whiteSpace=wrap;html=1;align=center;" parent="1" vertex="1">
          <mxGeometry x="270" y="700" width="100" height="40" as="geometry" />
        </mxCell>
        <mxCell id="HXB0dRbDovOkVUzspecU-3" value="Tutelado" style="whiteSpace=wrap;html=1;align=center;" parent="1" vertex="1">
          <mxGeometry x="430" y="600" width="100" height="40" as="geometry" />
        </mxCell>
        <mxCell id="HXB0dRbDovOkVUzspecU-4" value="" style="endArrow=block;endSize=16;endFill=0;html=1;entryX=0.75;entryY=1;entryDx=0;entryDy=0;rounded=0;exitX=0.5;exitY=0;exitDx=0;exitDy=0;" parent="1" source="HXB0dRbDovOkVUzspecU-3" target="64vifGtqwenx35H4uy4H-2" edge="1">
          <mxGeometry x="0.375" y="-20" width="160" relative="1" as="geometry">
            <mxPoint x="375" y="706" as="sourcePoint" />
            <mxPoint x="440" y="460" as="targetPoint" />
            <Array as="points">
              <mxPoint x="480" y="560" />
              <mxPoint x="435" y="560" />
            </Array>
            <mxPoint as="offset" />
          </mxGeometry>
        </mxCell>
        <mxCell id="HXB0dRbDovOkVUzspecU-5" value="Delega" style="shape=rhombus;perimeter=rhombusPerimeter;whiteSpace=wrap;html=1;align=center;" parent="1" vertex="1">
          <mxGeometry x="960" y="610" width="120" height="60" as="geometry" />
        </mxCell>
        <mxCell id="HXB0dRbDovOkVUzspecU-6" value="" style="endArrow=none;html=1;rounded=0;exitX=1;exitY=1;exitDx=0;exitDy=0;entryX=0.5;entryY=1;entryDx=0;entryDy=0;" parent="1" source="HXB0dRbDovOkVUzspecU-2" target="HXB0dRbDovOkVUzspecU-5" edge="1">
          <mxGeometry relative="1" as="geometry">
            <mxPoint x="740" y="660" as="sourcePoint" />
            <mxPoint x="900" y="660" as="targetPoint" />
          </mxGeometry>
        </mxCell>
        <mxCell id="HXB0dRbDovOkVUzspecU-7" value="1" style="resizable=0;html=1;align=right;verticalAlign=bottom;" parent="HXB0dRbDovOkVUzspecU-6" connectable="0" vertex="1">
          <mxGeometry x="1" relative="1" as="geometry">
            <mxPoint x="-120" y="10" as="offset" />
          </mxGeometry>
        </mxCell>
        <mxCell id="HXB0dRbDovOkVUzspecU-8" value="" style="endArrow=none;html=1;rounded=0;exitX=1;exitY=0.5;exitDx=0;exitDy=0;entryX=0;entryY=0.5;entryDx=0;entryDy=0;" parent="1" source="HXB0dRbDovOkVUzspecU-3" target="HXB0dRbDovOkVUzspecU-5" edge="1">
          <mxGeometry relative="1" as="geometry">
            <mxPoint x="600" y="619.58" as="sourcePoint" />
            <mxPoint x="760" y="619.58" as="targetPoint" />
          </mxGeometry>
        </mxCell>
        <mxCell id="HXB0dRbDovOkVUzspecU-9" value="N" style="resizable=0;html=1;align=right;verticalAlign=bottom;" parent="HXB0dRbDovOkVUzspecU-8" connectable="0" vertex="1">
          <mxGeometry x="1" relative="1" as="geometry">
            <mxPoint x="-90" y="-10" as="offset" />
          </mxGeometry>
        </mxCell>
        <mxCell id="HXB0dRbDovOkVUzspecU-10" value="" style="endArrow=none;html=1;rounded=0;exitX=0.5;exitY=0;exitDx=0;exitDy=0;entryX=0.5;entryY=1;entryDx=0;entryDy=0;" parent="1" source="HXB0dRbDovOkVUzspecU-5" target="64vifGtqwenx35H4uy4H-36" edge="1">
          <mxGeometry relative="1" as="geometry">
            <mxPoint x="845" y="770" as="sourcePoint" />
            <mxPoint x="1495" y="700" as="targetPoint" />
          </mxGeometry>
        </mxCell>
        <mxCell id="HXB0dRbDovOkVUzspecU-11" value="1" style="resizable=0;html=1;align=right;verticalAlign=bottom;" parent="HXB0dRbDovOkVUzspecU-10" connectable="0" vertex="1">
          <mxGeometry x="1" relative="1" as="geometry">
            <mxPoint x="-70" y="76" as="offset" />
          </mxGeometry>
        </mxCell>
        <mxCell id="HXB0dRbDovOkVUzspecU-12" value="" style="endArrow=none;html=1;rounded=0;exitX=1;exitY=0.5;exitDx=0;exitDy=0;entryX=0;entryY=0.75;entryDx=0;entryDy=0;" parent="1" source="HXB0dRbDovOkVUzspecU-5" target="64vifGtqwenx35H4uy4H-46" edge="1">
          <mxGeometry relative="1" as="geometry">
            <mxPoint x="1220" y="660" as="sourcePoint" />
            <mxPoint x="1459.9999999999995" y="660" as="targetPoint" />
          </mxGeometry>
        </mxCell>
        <mxCell id="HXB0dRbDovOkVUzspecU-13" value="M" style="resizable=0;html=1;align=right;verticalAlign=bottom;" parent="HXB0dRbDovOkVUzspecU-12" connectable="0" vertex="1">
          <mxGeometry x="1" relative="1" as="geometry">
            <mxPoint x="-660" y="186" as="offset" />
          </mxGeometry>
        </mxCell>
        <mxCell id="PoCe78CS7dT7vdUy4nnT-1" value="Tipo" style="ellipse;whiteSpace=wrap;html=1;align=center;" vertex="1" parent="1">
          <mxGeometry x="1210" y="250" width="100" height="40" as="geometry" />
        </mxCell>
        <mxCell id="PoCe78CS7dT7vdUy4nnT-2" value="" style="endArrow=none;html=1;rounded=0;entryX=0;entryY=1;entryDx=0;entryDy=0;exitX=0.5;exitY=0;exitDx=0;exitDy=0;" edge="1" parent="1" target="PoCe78CS7dT7vdUy4nnT-1">
          <mxGeometry relative="1" as="geometry">
            <mxPoint x="1254.9999999999998" y="394" as="sourcePoint" />
            <mxPoint x="1179.9999999999998" y="290" as="targetPoint" />
          </mxGeometry>
        </mxCell>
      </root>
    </mxGraphModel>
  </diagram>
</mxfile>
